<svg xmlns="http://www.w3.org/2000/svg" viewBox="0 0 31 31" width="31" height="31">
	<style>
		tspan { white-space:pre }
		.shp0 { fill: green } 
	</style>
	<g id="Capa 1">
		<g id="&lt;Group&gt;">
			<g id="&lt;Group&gt;">
				<g id="&lt;Group&gt;">
					<path id="&lt;Compound Path&gt;" fill-rule="evenodd" class="shp0" d="M15.52 30.68C12.84 30.68 10.21 29.97 7.88 28.62L1.91 30.68L3.14 24.36C1.22 21.72 0.2 18.62 0.2 15.36C0.2 6.91 7.08 0.04 15.52 0.04C23.97 0.04 30.84 6.91 30.84 15.36C30.84 23.81 23.97 30.68 15.52 30.68ZM8.16 26.12L8.62 26.4C10.7 27.71 13.09 28.4 15.52 28.4C22.71 28.4 28.56 22.55 28.56 15.36C28.56 8.17 22.71 2.32 15.52 2.32C8.33 2.32 2.48 8.17 2.48 15.36C2.48 18.28 3.44 21.06 5.25 23.37L5.57 23.78L4.9 27.24L8.16 26.12ZM7.79 9.47C8.39 8.43 8.93 7.87 9.42 7.81C10.15 7.72 11.1 7.72 11.35 8.2C11.52 8.52 11.98 9.61 12.74 11.47C12.87 11.78 12.84 12.1 12.64 12.41C12.44 12.72 12.11 13.1 11.67 13.54C11.42 13.86 11.42 14.19 11.67 14.53C12.04 15.04 12.62 15.98 13.82 17.18C14.62 17.98 15.79 18.66 17.32 19.23C17.54 19.26 17.72 19.21 17.86 19.07C18 18.93 18.45 18.38 19.21 17.44C19.45 17.12 19.77 17.06 20.18 17.24C20.58 17.43 21.66 17.95 23.41 18.83C23.62 18.9 23.72 19.09 23.72 19.4C23.72 19.87 23.53 21 23.15 21.38C22.76 21.77 21.64 22.95 19.95 22.95C18.27 22.95 14.25 21.58 12.11 19.44C9.97 17.3 8.07 15.13 7.63 13.16C7.18 11.18 7.24 10.29 7.79 9.47Z" />
				</g>
			</g>
		</g>
	</g>
</svg>