<svg xmlns="http://www.w3.org/2000/svg" viewBox="0 0 99.25 63.94"><defs><style>.cls-1{fill:#c51152;stroke:#fff;stroke-miterlimit:10;}</style></defs><g id="Capa_2" data-name="Capa 2"><g id="Capa_1-2" data-name="Capa 1"><path class="cls-1" d="M22,51.16a1.54,1.54,0,0,0-1.53,1.54,1.54,1.54,0,1,1-1.54-1.54,1.54,1.54,0,1,0,0-3.07,4.61,4.61,0,1,0,4.61,4.61A1.54,1.54,0,0,0,22,51.16Z"/><path class="cls-1" d="M83.4,51.16a1.53,1.53,0,0,0-1.53,1.54,1.54,1.54,0,1,1-1.54-1.54,1.54,1.54,0,1,0,0-3.07,4.61,4.61,0,1,0,4.61,4.61A1.54,1.54,0,0,0,83.4,51.16Z"/><path class="cls-1" d="M98.75,31.2a1.54,1.54,0,0,0-.45-1.09,7.67,7.67,0,0,0-3.79-4.24l-.15-.06-5.07-1.9L86.2,12.16s0,0,0-.05a7.64,7.64,0,0,0-7.36-5.47H68.05V3.57A3.08,3.08,0,0,0,65,.5H3.57A3.08,3.08,0,0,0,.5,3.57v43a3.08,3.08,0,0,0,3.07,3.07H8.63a10,10,0,0,0-.34,1.53H2a1.54,1.54,0,1,0,0,3.07H8.29a10.75,10.75,0,0,0,21.27,0h3.18a4.62,4.62,0,0,0,4.61,4.61h9.21a4.61,4.61,0,0,0,4.6-4.61H69.7a10.75,10.75,0,0,0,21.27,0h6.25a1.54,1.54,0,0,0,0-3.07H91a11.28,11.28,0,0,0-.34-1.53h5.05a3.07,3.07,0,0,0,3.07-3.07V32.74a7.59,7.59,0,0,0-.07-1.07A1.41,1.41,0,0,0,98.75,31.2Zm-3.07,9.22H94.15V38.88h1.53ZM94.51,29.67H68.05V26.6H87.73l5.48,2A4.67,4.67,0,0,1,94.51,29.67Zm-15.68-20A4.58,4.58,0,0,1,83.24,13L86,23.53h-18V9.71ZM9.71,46.56H3.57V38.88H51.16a1.54,1.54,0,1,0,0-3.07H3.57V3.57H65v43H28.13a1.47,1.47,0,0,0-.36,0,10.74,10.74,0,0,0-17.69,0A1.5,1.5,0,0,0,9.71,46.56Zm9.21,13.81A7.68,7.68,0,1,1,26.6,52.7,7.68,7.68,0,0,1,18.92,60.37Zm10.64-9.21a11.28,11.28,0,0,0-.34-1.53H33a4.55,4.55,0,0,0-.26,1.53Zm18.53,3.07a1.54,1.54,0,0,1-1.53,1.54H37.35a1.54,1.54,0,0,1-1.54-1.54V52.7h0V51.16a1.54,1.54,0,0,1,1.54-1.53h9.21a1.54,1.54,0,0,1,1.53,1.53Zm2.81-4.6H70a11.25,11.25,0,0,0-.33,1.53H51.16A4.55,4.55,0,0,0,50.9,49.63ZM80.33,60.37A7.68,7.68,0,1,1,88,52.7,7.68,7.68,0,0,1,80.33,60.37Zm9.21-13.81a1.42,1.42,0,0,0-.36,0,10.74,10.74,0,0,0-17.69,0,1.5,1.5,0,0,0-.37,0H68.05V32.74H95.68v3.07H94.15a3.08,3.08,0,0,0-3.07,3.07v1.54a3.08,3.08,0,0,0,3.07,3.07h1.53v3.07Z"/><path class="cls-1" d="M38.88,51.16a1.6,1.6,0,0,0-1.09.45,1.57,1.57,0,0,0-.44,1.09,1.54,1.54,0,0,0,3.07,0,1.54,1.54,0,0,0-1.54-1.54Z"/></g></g></svg>