<svg xmlns="http://www.w3.org/2000/svg" viewBox="0 0 41.07 41.07"><defs><style>.cls-1{fill:#c51152;stroke:#fff;stroke-miterlimit:10;stroke-width:0.25px;}</style></defs><g id="Capa_2" data-name="Capa 2"><g id="Capa_1-2" data-name="Capa 1"><path class="cls-1" d="M.13,25.56a5.46,5.46,0,0,1,.49-.89,2,2,0,0,1,2.22-.62v-5.3a2.07,2.07,0,0,1,2.3-2.29h9a2.07,2.07,0,0,1,2.28,2.27v4.15a1.11,1.11,0,0,0,.25-.14A4.09,4.09,0,0,1,19,21.91a.71.71,0,0,1,.86.75c0,.1,0,.21,0,.32V40.47c0,.16,0,.32,0,.47H18.46c0-.1,0-.21,0-.31V23.77c0-.12,0-.24,0-.37h-.18a2.52,2.52,0,0,0-.29.12,2.72,2.72,0,0,0-1.54,2.59v9.76a2.11,2.11,0,0,1-2.34,2.35H7.62v2.71H6.26V38.23c-.49,0-.91,0-1.33,0a2,2,0,0,1-2.07-1.83c0-.1,0-.2,0-.3a2,2,0,0,1-2.08-.52,6.31,6.31,0,0,1-.6-1v-.8l.43-.87a.31.31,0,0,0,0-.25c-.13-.29-.28-.58-.42-.87v-.72c.14-.29.29-.58.43-.88a.33.33,0,0,0,0-.24c-.14-.3-.29-.58-.43-.88v-.71c.14-.3.29-.58.42-.88a.36.36,0,0,0,0-.25c-.13-.29-.29-.58-.43-.87Zm14.94-4.32H4.23V33.43H15.07Zm0,13.61H4.2v1c0,.77.22,1,1,1h9.2a.67.67,0,0,0,.68-.65C15.11,35.76,15.09,35.31,15.09,34.85Zm0-15V18.75c0-.7-.23-.93-.93-.93H7c-.67,0-1.33,0-2,0-.43,0-.7.19-.74.58s0,.94,0,1.43ZM2.84,31.43a.7.7,0,0,0-.68-.69.72.72,0,0,0-.67.67.7.7,0,0,0,.65.68A.69.69,0,0,0,2.84,31.43Zm-.68-6.12a.69.69,0,0,0-.67.65.7.7,0,0,0,.68.69A.7.7,0,0,0,2.84,26,.69.69,0,0,0,2.16,25.31Zm0,9.5a.69.69,0,0,0,.66-.67.7.7,0,0,0-.69-.68.71.71,0,0,0-.66.67A.69.69,0,0,0,2.18,34.81Zm.66-6.12a.68.68,0,0,0-1.35,0,.7.7,0,0,0,.67.66A.69.69,0,0,0,2.84,28.69Z"/><path class="cls-1" d="M40.94,12.48c-.1.61-.16,1.24-.32,1.84a11.22,11.22,0,0,1-7.7,8.35A11,11,0,0,1,22.69,21.1,11.13,11.13,0,0,1,18,13.89,11.53,11.53,0,0,1,25.94.66,25.88,25.88,0,0,1,28.59.13h1.59l.39.06a18.06,18.06,0,0,1,2.32.5,11.38,11.38,0,0,1,7.73,8.37,18.4,18.4,0,0,1,.32,1.83Zm-1.36-.74A10.2,10.2,0,1,0,29.3,21.89,10.23,10.23,0,0,0,39.58,11.74Z"/><path class="cls-1" d="M11,9.63H9.68V8.31H11Z"/><path class="cls-1" d="M34.84,23.27h1.31v1.31H34.84Z"/><path class="cls-1" d="M36.17,26V27.3H34.84V26Z"/><path class="cls-1" d="M24,35.48V34.17h1.31v1.31Z"/><path class="cls-1" d="M26.68,35.48V34.17H28v1.31Z"/><path class="cls-1" d="M29.4,35.48v-1.3h1.31v1.3Z"/><path class="cls-1" d="M33.43,35.49H32.12V34.18h1.31Z"/><path class="cls-1" d="M36.15,34.17v1.31h-1.3V34.17Z"/><path class="cls-1" d="M8.26,9.65H7.33L7,9.63V8.32H8.26Z"/><path class="cls-1" d="M12.4,9.59V8.29c.39,0,.76,0,1.14,0,.07,0,.13.11.19.18s0,0,0,.08C13.81,9.68,13.62,9.83,12.4,9.59Z"/><path class="cls-1" d="M15.13,8.31h1.31V9.62H15.13Z"/><path class="cls-1" d="M7,11H8.25v1.31H7Z"/><path class="cls-1" d="M8.26,13.77v1.3H7v-1.3Z"/><path class="cls-1" d="M36.15,28.72V30H34.84V28.72Z"/><path class="cls-1" d="M34.84,31.45h1.3v1.31h-1.3Z"/><path class="cls-1" d="M22.54,35.49H21.25V34.17h1.29Z"/><path class="cls-1" d="M6.48,27.15l1-.95,1.48,1.57,3.62-3.63,1,1c-1.34,1.34-2.68,2.69-4,4a.64.64,0,0,1-1,0C7.81,28.51,7.16,27.83,6.48,27.15Z"/><path class="cls-1" d="M29.38,2.84a8.85,8.85,0,1,1-8.84,8.86A8.9,8.9,0,0,1,29.38,2.84Zm0,1.36a7.49,7.49,0,1,0,7.49,7.49A7.54,7.54,0,0,0,29.38,4.2Z"/><path class="cls-1" d="M26,13.76h1.3c0,.06.05.13.07.21a1.33,1.33,0,0,0,1.35,1.12q.66,0,1.32,0a1.35,1.35,0,0,0,1.37-1.36A1.37,1.37,0,0,0,30,12.37a11.62,11.62,0,0,1-2.13-.16A2.62,2.62,0,0,1,26,9.51,2.68,2.68,0,0,1,28.36,7a2.83,2.83,0,0,0,.33-.07V5.59h1.37c0,.34,0,.68,0,1s.09.34.33.37a2.65,2.65,0,0,1,2.37,2.67c-.39,0-.79,0-1.18,0-.06,0-.15-.15-.18-.24A1.33,1.33,0,0,0,30.13,8.3a12,12,0,0,0-1.47,0,1.35,1.35,0,0,0,0,2.7c.53,0,1.06,0,1.59,0a2.7,2.7,0,0,1,.15,5.37l-.35.06V17.8H28.7V16.47a2.84,2.84,0,0,1-2.21-1.16A2.53,2.53,0,0,1,26,13.76Z"/><path class="cls-1" d="M24.59,11v1.31H23.28V11Z"/><path class="cls-1" d="M34.17,12.34V11h1.31v1.31Z"/></g></g></svg>