<svg xmlns="http://www.w3.org/2000/svg" viewBox="0 0 75.57 84"><defs><style>.cls-1{fill:#c51152;stroke:#fff;stroke-miterlimit:10;}.cls-2{fill:none;stroke:#c51152;stroke-linecap:round;stroke-linejoin:round;stroke-width:1.5px;}</style></defs><g id="Capa_2" data-name="Capa 2"><g id="Capa_1-2" data-name="Capa 1"><path class="cls-1" d="M59.61,59.45,51.9,56.89l-2.76-5.54A17.71,17.71,0,0,0,53.94,42l.35-2.07h3A4.87,4.87,0,0,0,62.1,35V24.82a24.32,24.32,0,1,0-48.63,0V35a4.86,4.86,0,0,0,3.24,4.58v1.9a4.87,4.87,0,0,0,4.86,4.87H23a17.53,17.53,0,0,0,2.72,4.21c.23.26.47.52.71.77l-2.76,5.53L16,59.45C7,62.44.5,71.87.5,81.88A1.63,1.63,0,0,0,2.12,83.5H73.45a1.63,1.63,0,0,0,1.62-1.62C75.07,71.87,68.57,62.44,59.61,59.45ZM58.86,35a1.63,1.63,0,0,1-1.62,1.62H54.76c.42-3.19.69-6.59.8-9.93,0-.1,0-.19,0-.28h3.29ZM18.33,36.65A1.63,1.63,0,0,1,16.71,35V26.44H20c0,.17,0,.34,0,.51h0c.11,3.25.38,6.56.79,9.68Zm3.24,6.48A1.62,1.62,0,0,1,20,41.51V39.89h1.33L21.63,42a11.55,11.55,0,0,0,.24,1.17ZM20,23.2H16.77a21.08,21.08,0,0,1,42,0H55.61A16.41,16.41,0,0,0,39.24,7H36.33A16.41,16.41,0,0,0,20,23.2Zm16.37-13h2.91A13.19,13.19,0,0,1,52.38,23.42c0,.51,0,1,0,1.36v0l-2-.29a26.1,26.1,0,0,1-14.64-7.32,1.6,1.6,0,0,0-1.15-.48,14.63,14.63,0,0,0-11.27,5.34A13.17,13.17,0,0,1,36.33,10.23Zm-11.1,32.9c-.81-2.69-1.74-10.64-1.95-15.73l2.18-2.91A11.44,11.44,0,0,1,33.9,20a29.36,29.36,0,0,0,16,7.75l2.38.34A99.41,99.41,0,0,1,51.31,38h0c-.15,1-.27,1.65-.56,3.46A13.78,13.78,0,0,1,41,52.5a12.76,12.76,0,0,1-14.32-6.12H30a4.88,4.88,0,0,0,4.58,3.24h3.25a4.87,4.87,0,0,0,0-9.73H34.54A4.86,4.86,0,0,0,30,43.13Zm9.18,12.65a16,16,0,0,0,3.38.36,16.92,16.92,0,0,0,2.65-.22l-2.87,3Zm.93,5.52L30.2,66.74a63.1,63.1,0,0,1-3.63-8.41l1.93-3.87Zm11.45-7.39L49,58.32a61.59,61.59,0,0,1-3.63,8.42l-5.5-5.5ZM32.92,44.76a1.63,1.63,0,0,1,1.62-1.63h3.25a1.63,1.63,0,0,1,0,3.25H34.54A1.63,1.63,0,0,1,32.92,44.76ZM3.81,80.26c.64-8,6-15.33,13.18-17.73l6.82-2.28a65.25,65.25,0,0,0,4.61,10v0h0a66.35,66.35,0,0,0,4.44,6.78l2,3.2Zm34-1.45-2.2-3.53-.08-.11a60.33,60.33,0,0,1-3.65-5.46l5.78-6.11,6.09,6.09a59.45,59.45,0,0,1-3.67,5.48C40,75.27,40.1,75.11,37.79,78.81Zm2.91,1.45,2-3.2a66.79,66.79,0,0,0,4.47-6.83l0,0h0a63.77,63.77,0,0,0,4.57-9.93l6.82,2.28c7.2,2.4,12.54,9.7,13.18,17.73Z"/><path class="cls-2" d="M17.24,38.12S16.17,50.5,14,51.45c0,0,9.65,2.86,12.86-1v-1"/><path class="cls-2" d="M58.07,38.6s1,12.38,3.1,13.33c0,0-9.29,2.86-12.38-1V50"/></g></g></svg>