<svg xmlns="http://www.w3.org/2000/svg" viewBox="0 0 67.36 58.94"><defs><style>.cls-1{fill:#c51152;stroke:#fff;stroke-miterlimit:10;}</style></defs><g id="Capa_2" data-name="Capa 2"><g id="Capa_1-2" data-name="Capa 1"><path class="cls-1" d="M47.64,32.05h-9a4.49,4.49,0,0,0-4.48,4.48v6.91a4.49,4.49,0,0,0,4.48,4.48h9a4.49,4.49,0,0,0,4.48-4.48V36.53A4.49,4.49,0,0,0,47.64,32.05Zm1.23,11.39a1.23,1.23,0,0,1-1.23,1.22h-9a1.22,1.22,0,0,1-1.22-1.22V36.53a1.22,1.22,0,0,1,1.22-1.22h9a1.23,1.23,0,0,1,1.23,1.22Z"/><path class="cls-1" d="M66.86,19.48a1.53,1.53,0,0,0-.22-.8L56.77,1.33A1.64,1.64,0,0,0,55.36.5H12a1.61,1.61,0,0,0-1.41.83L.72,18.68a1.63,1.63,0,0,0-.22.8,9.54,9.54,0,0,0,5.69,8.71V56.81a1.64,1.64,0,0,0,1.63,1.63h51.7a1.63,1.63,0,0,0,1.63-1.63V28.39a1,1,0,0,0,0-.18A9.53,9.53,0,0,0,66.86,19.48ZM12.93,3.77H54.41l7.72,13.57H5.23Zm34.8,16.81a6.26,6.26,0,0,1-12.32,0ZM32,20.58a6.27,6.27,0,0,1-12.33,0Zm-28.1,0H16.19a6.27,6.27,0,0,1-12.33,0Zm24,34.6H18.48V37.62a2.31,2.31,0,0,1,2.32-2.31h4.73a2.32,2.32,0,0,1,2.32,2.31V55.18Zm30.06,0H31.09V37.62a5.58,5.58,0,0,0-5.57-5.57H20.78a5.58,5.58,0,0,0-5.57,5.57V55.2H9.45V29H10a9.52,9.52,0,0,0,7.89-4.2,9.51,9.51,0,0,0,15.78,0,9.49,9.49,0,0,0,15.76,0A9.52,9.52,0,0,0,57.34,29h.56V55.18Zm-.56-29.43a6.26,6.26,0,0,1-6.16-5.16H63.51A6.29,6.29,0,0,1,57.34,25.75Z"/></g></g></svg>