<svg xmlns="http://www.w3.org/2000/svg" viewBox="0 0 26.58 26.58"><defs><style>.cls-1{fill:#333;stroke:#fff;stroke-miterlimit:10;stroke-width:0.5px;}</style></defs><g id="Capa_2" data-name="Capa 2"><g id="Capa_1-2" data-name="Capa 1"><path class="cls-1" d="M5.92,24l.47.29a12.92,12.92,0,0,0,6.9,2,13,13,0,1,0-13-13A12.89,12.89,0,0,0,3,21.3l.32.41-.67,3.46Zm-.53-13c.45,2,2.35,4.15,4.49,6.29a14.07,14.07,0,0,0,7.84,3.51,4.53,4.53,0,0,0,3.19-1.57,3.64,3.64,0,0,0,.57-2,.56.56,0,0,0-.3-.57S18.55,15.45,18,15.17a.81.81,0,0,0-1,.19S15.84,16.79,15.63,17a.72.72,0,0,1-.54.17,11.83,11.83,0,0,1-3.5-2.06,18.61,18.61,0,0,1-2.16-2.64.84.84,0,0,1,0-1,8.63,8.63,0,0,0,1-1.13,1.12,1.12,0,0,0,.11-.95S9.37,6.61,9.12,6.13s-1.2-.48-1.93-.39S5.56,7.4,5.56,7.4C5,8.22,4.94,9.11,5.39,11.08Z"/></g></g></svg>