<?xml version="1.0" encoding="utf-8"?>
<!-- Generator: Adobe Illustrator 19.0.0, SVG Export Plug-In . SVG Version: 6.00 Build 0)  -->
<svg version="1.1" id="Capa_1" xmlns="http://www.w3.org/2000/svg" xmlns:xlink="http://www.w3.org/1999/xlink" x="0px" y="0px"
	 viewBox="0 0 90 225" style="enable-background:new 0 0 90 225;" xml:space="preserve">
<style type="text/css">
	.st0{fill:#C0C0C0;}
	.st1{fill:#C41653;}
</style>
<g>
	<g>
		<g>
			<path class="st0" d="M59.3,224.7c-5.7,0-10.4-4.7-10.4-10.4c0-0.9,0.2-1.9,0.5-3l0.1-0.2l-10.2-5.1l-0.1,0.2
				c-2,2.7-5.1,4.3-8.4,4.3c-5.7,0-10.4-4.7-10.4-10.4s4.7-10.4,10.4-10.4c3.3,0,6.4,1.6,8.4,4.3l0.1,0.2l10.2-5.1l-0.1-0.2
				c-0.3-1.1-0.5-2.1-0.5-3c0-5.7,4.7-10.4,10.4-10.4c5.7,0,10.4,4.7,10.4,10.4c0,5.7-4.7,10.4-10.4,10.4c-3.3,0-6.4-1.6-8.4-4.3
				l-0.1-0.2l-10.2,5.1l0.1,0.2c0.3,1.1,0.5,2.1,0.5,3c0,0.9-0.2,1.9-0.5,3l-0.1,0.2l10.2,5.1l0.1-0.2c2-2.7,5.1-4.3,8.4-4.3
				c5.7,0,10.4,4.7,10.4,10.4C69.7,220,65,224.7,59.3,224.7z M59.3,206.8c-4.1,0-7.4,3.3-7.4,7.4c0,4.1,3.3,7.4,7.4,7.4
				s7.4-3.3,7.4-7.4C66.7,210.2,63.4,206.8,59.3,206.8z M30.7,192.6c-4.1,0-7.4,3.3-7.4,7.4s3.3,7.4,7.4,7.4s7.4-3.3,7.4-7.4
				S34.8,192.6,30.7,192.6z M59.3,178.3c-4.1,0-7.4,3.3-7.4,7.4c0,4.1,3.3,7.4,7.4,7.4s7.4-3.3,7.4-7.4
				C66.7,181.6,63.4,178.3,59.3,178.3z"/>
		</g>
	</g>
</g>
<g>
	<g>
		<g>
			<path class="st1" d="M59.3,55.8c-5.7,0-10.4-4.7-10.4-10.4c0-0.9,0.2-1.9,0.5-3l0.1-0.2L39.2,37l-0.1,0.2c-2,2.7-5.1,4.3-8.4,4.3
				c-5.7,0-10.4-4.7-10.4-10.4c0-5.7,4.7-10.4,10.4-10.4c3.3,0,6.4,1.6,8.4,4.3l0.1,0.2l10.2-5.1l-0.1-0.2c-0.3-1.1-0.5-2.1-0.5-3
				c0-5.7,4.7-10.4,10.4-10.4c5.7,0,10.4,4.7,10.4,10.4c0,5.7-4.7,10.4-10.4,10.4c-3.3,0-6.4-1.6-8.4-4.3l-0.1-0.2l-10.2,5.1
				l0.1,0.2c0.3,1.1,0.5,2.1,0.5,3c0,0.9-0.2,1.9-0.5,3l-0.1,0.2l10.2,5.1l0.1-0.2c2-2.7,5.1-4.3,8.4-4.3c5.7,0,10.4,4.7,10.4,10.4
				S65,55.8,59.3,55.8z M59.3,37.9c-4.1,0-7.4,3.3-7.4,7.4s3.3,7.4,7.4,7.4s7.4-3.3,7.4-7.4S63.4,37.9,59.3,37.9z M30.7,23.7
				c-4.1,0-7.4,3.3-7.4,7.4s3.3,7.4,7.4,7.4s7.4-3.3,7.4-7.4S34.8,23.7,30.7,23.7z M59.3,9.4c-4.1,0-7.4,3.3-7.4,7.4
				c0,4.1,3.3,7.4,7.4,7.4s7.4-3.3,7.4-7.4C66.7,12.7,63.4,9.4,59.3,9.4z"/>
		</g>
	</g>
</g>
</svg>
