<?xml version="1.0" encoding="utf-8"?>
<!-- Generator: Adobe Illustrator 19.0.0, SVG Export Plug-In . SVG Version: 6.00 Build 0)  -->
<svg version="1.1" id="Capa_1" xmlns="http://www.w3.org/2000/svg" xmlns:xlink="http://www.w3.org/1999/xlink" x="0px" y="0px"
	 viewBox="0 0 40 44.1" style="enable-background:new 0 0 40 44.1;" xml:space="preserve">
<style type="text/css">
	.st0{fill:#C51152;}
</style>
<g id="XMLID_23_">
	<path id="XMLID_32_" class="st0" d="M31.9,31.2L28,35.3V25.3c0-0.5-0.5-0.9-1-0.9c-0.5,0-1,0.4-1,0.9v10.1l-3.7-4.1
		c-0.4-0.4-0.9-0.4-1.2,0c-0.4,0.4-0.4,0.9,0,1.3l5.4,5.8c0.2,0.2,0.4,0.3,0.7,0.3s0.5-0.1,0.7-0.3l5.4-5.8c0.3-0.4,0.3-1-0.1-1.3
		C32.8,30.9,32.2,30.9,31.9,31.2z"/>
	<path id="XMLID_53_" class="st0" d="M30,19v-8.4c0-0.2-0.2-0.5-0.4-0.6l-9.4-9.8C20,0.1,19.7,0,19.5,0H4.6C1.9,0,0,2.1,0,4.9V33
		c0,2.7,1.9,5,4.6,5h11.7c2.2,4,6.3,6.1,10.9,6.1c7,0,12.8-5.7,12.8-12.7C40,25.3,36,20.2,30,19z M20,3.1l6.7,6.9h-4.1
		C21.4,10,20,8.8,20,7.5V3.1z M6.3,10h11c0.6,0,1.1,0.4,1.1,1c0,0.6-0.5,1-1.1,1h-11c-0.6,0-1.1-0.4-1.1-1C5.2,10.4,5.7,10,6.3,10z
		 M6.3,15h11c0.6,0,1.1,0.4,1.1,1c0,0.6-0.5,1-1.1,1h-11c-0.6,0-1.1-0.4-1.1-1C5.2,15.4,5.7,15,6.3,15z M6.3,22
		c-0.6,0-1.1-0.4-1.1-1c0-0.6,0.5-1,1.1-1h11c0.6,0,1.1,0.4,1.1,1c0,0.6-0.5,1-1.1,1H6.3z M27.2,42.3c-6,0-10.8-4.9-10.8-10.8
		c0-6,4.8-10.8,10.8-10.8c6,0,10.8,4.9,10.8,10.8C38,37.4,33.2,42.3,27.2,42.3z"/>
</g>
</svg>
