<?xml version="1.0" encoding="utf-8"?>
<!-- Generator: Adobe Illustrator 16.0.0, SVG Export Plug-In . SVG Version: 6.00 Build 0)  -->
<!DOCTYPE svg PUBLIC "-//W3C//DTD SVG 1.1//EN" "http://www.w3.org/Graphics/SVG/1.1/DTD/svg11.dtd">
<svg version="1.1" id="Capa_1" xmlns="http://www.w3.org/2000/svg" xmlns:xlink="http://www.w3.org/1999/xlink" x="0px" y="0px"
	 width="17.602px" height="17.602px" viewBox="0 0 17.602 17.602" enable-background="new 0 0 17.602 17.602" xml:space="preserve">
<g>
	<defs>
		<path id="SVGID_1_" d="M6.756,8.801c0,1.128,0.917,2.045,2.045,2.045s2.045-0.917,2.045-2.045c0-1.128-0.917-2.045-2.045-2.045
			S6.756,7.673,6.756,8.801 M6.198,8.801c0-1.435,1.168-2.603,2.603-2.603c1.436,0,2.604,1.168,2.604,2.603
			c0,1.435-1.168,2.603-2.604,2.603C7.366,11.404,6.198,10.236,6.198,8.801 M10.697,6.043c0-0.425,0.345-0.769,0.769-0.769
			s0.77,0.344,0.77,0.769c0,0.424-0.346,0.769-0.77,0.769S10.697,6.467,10.697,6.043 M6.619,4.042c-1.422,0-2.577,1.155-2.577,2.576
			v4.365c0,1.422,1.155,2.577,2.577,2.577h4.365c1.421,0,2.575-1.155,2.575-2.577V6.618c0-1.421-1.154-2.576-2.575-2.576H6.619z
			 M0.801,8.801c0-4.418,3.582-8,8-8s8,3.582,8,8c0,4.418-3.582,8-8,8S0.801,13.219,0.801,8.801 M8.801,0C3.941,0,0,3.941,0,8.801
			c0,4.858,3.941,8.801,8.801,8.801c4.859,0,8.801-3.942,8.801-8.801C17.602,3.941,13.66,0,8.801,0z"/>
	</defs>
	<clipPath id="SVGID_2_">
		<use xlink:href="#SVGID_1_"  overflow="visible"/>
	</clipPath>
	
		<linearGradient id="SVGID_3_" gradientUnits="userSpaceOnUse" x1="0" y1="17.6021" x2="1" y2="17.6021" gradientTransform="matrix(12.4456 -12.4456 -12.4456 -12.4456 221.6465 234.0923)">
		<stop  offset="0" style="stop-color:#FFD600"/>
		<stop  offset="0.4925" style="stop-color:#FF0E00"/>
		<stop  offset="0.9095" style="stop-color:#D800B9"/>
		<stop  offset="1" style="stop-color:#D800B9"/>
	</linearGradient>
	<polygon clip-path="url(#SVGID_2_)" fill="url(#SVGID_3_)" points="-8.801,8.801 8.801,-8.801 26.403,8.801 8.801,26.403 	"/>
</g>
</svg>
