<!-- Generated by IcoMoon.io -->
<svg version="1.1" xmlns="http://www.w3.org/2000/svg" width="32" height="32" viewBox="0 0 32 32">
<title>foot1</title>
<path fill="#cececd" d="M8.656 0l-8.393 10.492 15.738 21.508 15.738-21.508-8.219-10.492h-14.863z"></path>
<path fill="#fff" d="M12.066 11.628s-9.792-2.098-6.295-5.945 11.191-2.798 12.59-1.399 2.973 2.098 3.847 1.399 1.924-1.049 2.098-0.525-1.224 2.273 0 2.798 2.098 0.175 2.098 0.175 1.172 1.084-0.525 1.399c-5.596 1.049-6.295-4.372-12.24-4.546-4.057-0.122-11.016 2.973-1.049 5.246 0.297 0.070-0.402 1.399-0.525 1.399z"></path>
<path fill="#fff" d="M11.891 7.956c0 0.386-0.313 0.699-0.699 0.699s-0.699-0.313-0.699-0.699c0-0.386 0.313-0.699 0.699-0.699s0.699 0.313 0.699 0.699z"></path>
<path fill="#fff" d="M20.634 11.279c1.049-0.175 6.47 1.749 6.12 4.197s-4.721 4.022-7.694 4.197-7.869-2.798-7.869-2.798-4.546 1.574-3.497-0.175 1.119-2.448-0.525-2.273-2.623-0.874 0-1.399c1.207-0.245 2.973 0 4.721 2.098s5.421 2.798 8.219 2.623 6.96-2.658 1.574-4.372c-3.847-1.224-2.098-1.924-1.049-2.098z"></path>
<path fill="#fff" d="M21.683 15.213c0 0.435-0.352 0.787-0.787 0.787s-0.787-0.352-0.787-0.787c0-0.435 0.352-0.787 0.787-0.787s0.787 0.352 0.787 0.787z"></path>
</svg>
