<?xml version="1.0" encoding="utf-8"?>
<!-- Generator: Adobe Illustrator 19.0.0, SVG Export Plug-In . SVG Version: 6.00 Build 0)  -->
<svg version="1.1" id="Capa_1" xmlns="http://www.w3.org/2000/svg" xmlns:xlink="http://www.w3.org/1999/xlink" x="0px" y="0px"
	 viewBox="0 0 46.7 120.8" style="enable-background:new 0 0 46.7 120.8;" xml:space="preserve">
<style type="text/css">
	.st0{fill:#C51152;}
	.st1{fill:#FFFFFF;}
</style>
<g id="XMLID_23_">
	<path id="XMLID_32_" class="st0" d="M35.2,103l-3.9,4.1V97c0-0.5-0.5-0.9-1-0.9c-0.5,0-1,0.4-1,0.9V107l-3.7-4.1
		c-0.4-0.4-0.9-0.4-1.2,0c-0.4,0.4-0.4,0.9,0,1.3l5.4,5.8c0.2,0.2,0.4,0.3,0.7,0.3s0.5-0.1,0.7-0.3l5.4-5.8c0.3-0.4,0.3-1-0.1-1.3
		C36.2,102.6,35.5,102.6,35.2,103z"/>
	<path id="XMLID_53_" class="st0" d="M33.3,90.7v-8.4c0-0.2-0.2-0.5-0.4-0.6L23.5,72c-0.2-0.2-0.5-0.2-0.7-0.2H8
		c-2.7,0-4.6,2.1-4.6,4.9v28.1c0,2.7,1.9,5,4.6,5h11.7c2.2,4,6.3,6.1,10.9,6.1c7,0,12.8-5.7,12.8-12.7
		C43.3,97.1,39.3,91.9,33.3,90.7z M23.3,74.9l6.7,6.9H26c-1.2,0-2.6-1.2-2.6-2.5V74.9z M9.6,81.7h11c0.6,0,1.1,0.4,1.1,1
		c0,0.6-0.5,1-1.1,1h-11c-0.6,0-1.1-0.4-1.1-1C8.5,82.1,9,81.7,9.6,81.7z M9.6,86.7h11c0.6,0,1.1,0.4,1.1,1c0,0.6-0.5,1-1.1,1h-11
		c-0.6,0-1.1-0.4-1.1-1C8.5,87.1,9,86.7,9.6,86.7z M9.6,93.7c-0.6,0-1.1-0.4-1.1-1c0-0.6,0.5-1,1.1-1h11c0.6,0,1.1,0.4,1.1,1
		c0,0.6-0.5,1-1.1,1H9.6z M30.6,114c-6,0-10.8-4.9-10.8-10.8c0-6,4.8-10.8,10.8-10.8c6,0,10.8,4.9,10.8,10.8
		C41.4,109.1,36.5,114,30.6,114z"/>
</g>
<g id="XMLID_43_">
	<path id="XMLID_54_" class="st1" d="M35.2,36L31.3,40V30c0-0.5-0.5-0.9-1-0.9c-0.5,0-1,0.4-1,0.9V40L25.7,36
		c-0.4-0.4-0.9-0.4-1.2,0c-0.4,0.4-0.4,0.9,0,1.3l5.4,5.8c0.2,0.2,0.4,0.3,0.7,0.3s0.5-0.1,0.7-0.3l5.4-5.8c0.3-0.4,0.3-1-0.1-1.3
		C36.2,35.6,35.5,35.6,35.2,36z"/>
	<path id="XMLID_44_" class="st1" d="M33.3,23.7v-8.4c0-0.2-0.2-0.5-0.4-0.6L23.5,5c-0.2-0.2-0.5-0.2-0.7-0.2H8
		c-2.7,0-4.6,2.1-4.6,4.9v28.1c0,2.7,1.9,5,4.6,5h11.7c2.2,4,6.3,6.1,10.9,6.1c7,0,12.8-5.7,12.8-12.7
		C43.3,30.1,39.3,24.9,33.3,23.7z M23.3,7.9l6.7,6.9H26c-1.2,0-2.6-1.2-2.6-2.5V7.9z M9.6,14.7h11c0.6,0,1.1,0.4,1.1,1
		c0,0.6-0.5,1-1.1,1h-11c-0.6,0-1.1-0.4-1.1-1C8.5,15.1,9,14.7,9.6,14.7z M9.6,19.7h11c0.6,0,1.1,0.4,1.1,1c0,0.6-0.5,1-1.1,1h-11
		c-0.6,0-1.1-0.4-1.1-1C8.5,20.1,9,19.7,9.6,19.7z M9.6,26.7c-0.6,0-1.1-0.4-1.1-1c0-0.6,0.5-1,1.1-1h11c0.6,0,1.1,0.4,1.1,1
		c0,0.6-0.5,1-1.1,1H9.6z M30.6,47c-6,0-10.8-4.9-10.8-10.8c0-6,4.8-10.8,10.8-10.8c6,0,10.8,4.9,10.8,10.8
		C41.4,42.1,36.5,47,30.6,47z"/>
</g>
</svg>
