<?xml version="1.0" encoding="utf-8"?>
<!-- Generator: Adobe Illustrator 16.0.0, SVG Export Plug-In . SVG Version: 6.00 Build 0)  -->
<!DOCTYPE svg PUBLIC "-//W3C//DTD SVG 1.1//EN" "http://www.w3.org/Graphics/SVG/1.1/DTD/svg11.dtd">
<svg version="1.1" id="Capa_1" xmlns="http://www.w3.org/2000/svg" xmlns:xlink="http://www.w3.org/1999/xlink" x="0px" y="0px"
	 width="841.395px" height="221.799px" viewBox="0.494 146.886 841.395 221.799"
	 enable-background="new 0.494 146.886 841.395 221.799" xml:space="preserve">
<title>es</title>
<path fill="#C51152" d="M841.889,243.421v-37.169c-40.994,0-72.293,26.879-72.293,68.632v89.344h38.62V276.83
	C808.216,255.426,821.013,243.421,841.889,243.421 M753.898,303.709c0.922-5.784,1.451-11.624,1.583-17.479
	c0-47.229-32.98-81.429-80.373-81.429s-81.956,33.937-81.956,81.956s35.486,81.924,84.825,81.924
	c27.407,0,50.889-9.136,66.785-24.538l-20.876-25.56c-12.936,10.52-29.247,15.992-45.909,15.402
	c-23.086,0-39.906-11.478-46.172-30.276H753.898z M718.972,274.224h-88.454c4.684-21.569,21.636-35.224,44.59-35.224
	c23.746,0,39.906,12.764,43.831,35.224 M588.93,243.421v-37.169c-40.962,0-72.26,26.879-72.26,68.632v89.344h38.62V276.83
	C555.29,255.426,568.053,243.421,588.93,243.421 M497.574,299.784v-89.245h-38.62v87.431c0,21.405-12.764,33.377-33.64,33.377
	c-20.877,0-33.673-11.972-33.673-33.377v-87.431H352.89v89.245c0,41.688,31.431,68.632,72.557,68.632
	S497.574,341.471,497.574,299.784 M337.62,303.709c0.921-5.784,1.45-11.624,1.583-17.479c0-47.229-32.98-81.429-80.374-81.429
	c-47.393,0-81.956,34.2-81.956,81.956s35.487,81.924,84.826,81.924c27.406,0,50.889-9.136,66.785-24.538l-20.877-25.56
	c-12.935,10.52-29.246,15.992-45.908,15.402c-23.087,0-39.906-11.478-46.173-30.276H337.62z M302.66,274.224h-88.288
	c4.716-21.569,21.635-35.224,44.59-35.224c23.745,0,39.906,12.764,43.83,35.224 M146.037,340.185
	c17.413-19.788,23.086-49.471,15.83-76.482c-9.103-30.11-35.85-54.582-67.279-57.88c-21.107-1.913-41.028,2.309-56.364,14.709
	v-73.646H0.494v134.362c0.165,17.348,2.804,30.936,9.895,44.128c15.138,28.66,45.579,44.985,79.152,43.172
	c21.736-1.965,41.905-12.144,56.396-28.463 M120.213,313.702c-11.081,14.56-29.553,21.44-47.458,17.678
	c-17.555-4.746-30.711-19.321-33.641-37.269c-2.973-18.166,5.21-36.349,20.777-46.172c15.039-8.853,33.784-8.47,48.448,0.989
	c6.837,4.696,12.301,11.128,15.831,18.634c6.821,15.028,5.322,32.524-3.958,46.173"/>
</svg>
