<?xml version="1.0" encoding="UTF-8" standalone="no"?>
<svg
   xmlns:dc="http://purl.org/dc/elements/1.1/"
   xmlns:cc="http://creativecommons.org/ns#"
   xmlns:rdf="http://www.w3.org/1999/02/22-rdf-syntax-ns#"
   xmlns:svg="http://www.w3.org/2000/svg"
   xmlns="http://www.w3.org/2000/svg"
   xmlns:sodipodi="http://sodipodi.sourceforge.net/DTD/sodipodi-0.dtd"
   xmlns:inkscape="http://www.inkscape.org/namespaces/inkscape"
   aria-hidden="true"
   focusable="false"
   data-prefix="fas"
   data-icon="user"
   class="svg-inline--fa fa-user fa-w-14"
   role="img"
   viewBox="0 0 448 512"
   version="1.1"
   id="svg4"
   sodipodi:docname="user-solid1.svg"
   inkscape:version="0.92.4 (5da689c313, 2019-01-14)">
  <metadata
     id="metadata10">
    <rdf:RDF>
      <cc:Work
         rdf:about="">
        <dc:format>image/svg+xml</dc:format>
        <dc:type
           rdf:resource="http://purl.org/dc/dcmitype/StillImage" />
      </cc:Work>
    </rdf:RDF>
  </metadata>
  <defs
     id="defs8" />
  <sodipodi:namedview
     pagecolor="#ffffff"
     bordercolor="#666666"
     borderopacity="1"
     objecttolerance="10"
     gridtolerance="10"
     guidetolerance="10"
     inkscape:pageopacity="0"
     inkscape:pageshadow="2"
     inkscape:window-width="1920"
     inkscape:window-height="1017"
     id="namedview6"
     showgrid="false"
     inkscape:zoom="0.4609375"
     inkscape:cx="-473.49153"
     inkscape:cy="256"
     inkscape:window-x="-8"
     inkscape:window-y="-8"
     inkscape:window-maximized="1"
     inkscape:current-layer="svg4" />
  <path
     fill="currentColor"
     d="M224 256c70.7 0 128-57.3 128-128S294.7 0 224 0 96 57.3 96 128s57.3 128 128 128zm89.6 32h-16.7c-22.2 10.2-46.9 16-72.9 16s-50.6-5.8-72.9-16h-16.7C60.2 288 0 348.2 0 422.4V464c0 26.5 21.5 48 48 48h352c26.5 0 48-21.5 48-48v-41.6c0-74.2-60.2-134.4-134.4-134.4z"
     id="path2" />
  <path
     style="fill:#ff00ff;fill-opacity:0.00392157;stroke-width:2.16949153"
     d="M 193.41389,250.74514 C 169.50464,244.48132 152.83424,234.71592 134.4,216.17527 95.261085,176.81044 86.354693,121.61047 110.93199,70.725424 c 9.30338,-19.26179 36.57789,-46.418571 56.12512,-55.882854 50.61361,-24.5058523 106.91834,-15.19232429 146.31266,24.201999 43.1518,43.151803 49.66784,107.357341 16.12093,158.847121 -28.99053,44.49638 -84.97511,66.24128 -136.07681,52.85345 z"
     id="path4520"
     inkscape:connector-curvature="0" />
  <path
     style="fill:#552200;fill-opacity:0.00392157;stroke-width:2.16949153"
     d="M 32.952144,508.23621 C 22.465447,504.433 11.29797,494.69912 6.394785,485.08808 2.5615707,477.57436 2.0610169,472.29691 2.0610169,439.39619 c 0,-26.89995 0.9520128,-40.8871 3.4390444,-50.5271 9.2127047,-35.70943 37.1596437,-69.61818 70.6057707,-85.66782 9.987215,-4.79252 24.016198,-9.83729 31.175528,-11.2106 19.73689,-3.78595 46.7879,-1.60764 68.33898,5.50308 16.66451,5.4984 21.36613,6.08444 48.81356,6.08444 27.70753,0 31.99113,-0.54618 48.81356,-6.22397 15.96329,-5.38782 21.79243,-6.2355 43.38983,-6.3098 30.37744,-0.1045 46.33402,4.6042 70.59848,20.83326 19.80959,13.24947 33.25972,28.36202 44.10794,49.55961 12.93743,25.27996 14.37832,33.01463 14.37832,77.18246 v 39.21637 l -6.54197,10.586 c -4.7649,7.71041 -9.69411,12.2327 -18.14604,16.64805 l -11.60406,6.06203 -184.70142,-0.16509 C 88.369959,510.84518 38.175349,510.13048 32.952144,508.23617 Z"
     id="path4522"
     inkscape:connector-curvature="0" />
  <path
     style="fill:#55226b;fill-opacity:0.00392157;stroke-width:2.16949153"
     d="M 32.952144,508.23621 C 22.465447,504.433 11.29797,494.69912 6.394785,485.08808 2.5615707,477.57436 2.0610169,472.29691 2.0610169,439.39619 c 0,-26.89995 0.9520128,-40.8871 3.4390444,-50.5271 9.2127047,-35.70943 37.1596437,-69.61818 70.6057707,-85.66782 9.987215,-4.79252 24.016198,-9.83729 31.175528,-11.2106 19.73689,-3.78595 46.7879,-1.60764 68.33898,5.50308 16.66451,5.4984 21.36613,6.08444 48.81356,6.08444 27.70753,0 31.99113,-0.54618 48.81356,-6.22397 15.96329,-5.38782 21.79243,-6.2355 43.38983,-6.3098 30.37744,-0.1045 46.33402,4.6042 70.59848,20.83326 19.80959,13.24947 33.25972,28.36202 44.10794,49.55961 12.93743,25.27996 14.37832,33.01463 14.37832,77.18246 v 39.21637 l -6.54197,10.586 c -4.7649,7.71041 -9.69411,12.2327 -18.14604,16.64805 l -11.60406,6.06203 -184.70142,-0.16509 C 88.369959,510.84518 38.175349,510.13048 32.952144,508.23617 Z"
     id="path4524"
     inkscape:connector-curvature="0" />
  <path
     style="fill:#55226b;fill-opacity:0.00392157;stroke-width:2.16949153"
     d="M 193.41389,250.74514 C 169.50464,244.48132 152.83424,234.71592 134.4,216.17527 85.706056,167.20026 84.576075,92.20759 131.77812,42.170932 c 17.56615,-18.621041 37.49404,-30.745195 59.992,-36.4992025 31.50998,-8.0588975 57.5323,-5.35697815 87.98581,9.1356415 42.25402,20.1084 71.51788,66.513617 71.51788,113.409579 0,80.97666 -79.86027,142.96285 -157.85992,122.52819 z"
     id="path4526"
     inkscape:connector-curvature="0" />
  <path
     style="fill:#55226b;fill-opacity:0.00392157;stroke-width:2.16949153"
     d="M 32.952144,508.23621 C 22.465447,504.433 11.29797,494.69912 6.394785,485.08808 2.5615707,477.57436 2.0610169,472.29691 2.0610169,439.39619 c 0,-26.89995 0.9520128,-40.8871 3.4390444,-50.5271 9.2127047,-35.70943 37.1596437,-69.61818 70.6057707,-85.66782 9.987215,-4.79252 24.016198,-9.83729 31.175528,-11.2106 19.73689,-3.78595 46.7879,-1.60764 68.33898,5.50308 16.66451,5.4984 21.36613,6.08444 48.81356,6.08444 27.70753,0 31.99113,-0.54618 48.81356,-6.22397 15.96329,-5.38782 21.79243,-6.2355 43.38983,-6.3098 30.37744,-0.1045 46.33402,4.6042 70.59848,20.83326 19.80959,13.24947 33.25972,28.36202 44.10794,49.55961 12.93743,25.27996 14.37832,33.01463 14.37832,77.18246 v 39.21637 l -6.54197,10.586 c -4.7649,7.71041 -9.69411,12.2327 -18.14604,16.64805 l -11.60406,6.06203 -184.70142,-0.16509 C 88.369959,510.84518 38.175349,510.13048 32.952144,508.23617 Z"
     id="path4528"
     inkscape:connector-curvature="0" />
  <path
     style="fill:#55226b;fill-opacity:0.00392157;stroke-width:2.16949153"
     d="M 193.41389,250.74514 C 169.50464,244.48132 152.83424,234.71592 134.4,216.17527 85.706056,167.20026 84.576075,92.20759 131.77812,42.170932 c 17.56615,-18.621041 37.49404,-30.745195 59.992,-36.4992025 31.50998,-8.0588975 57.5323,-5.35697815 87.98581,9.1356415 42.25402,20.1084 71.51788,66.513617 71.51788,113.409579 0,80.97666 -79.86027,142.96285 -157.85992,122.52819 z"
     id="path4530"
     inkscape:connector-curvature="0" />
  <path
     style="fill:#55226b;fill-opacity:0.00392157;stroke-width:2.16949153"
     d="M 193.41389,250.74514 C 169.50464,244.48132 152.83424,234.71592 134.4,216.17527 85.706056,167.20026 84.576075,92.20759 131.77812,42.170932 c 17.56615,-18.621041 37.49404,-30.745195 59.992,-36.4992025 31.50998,-8.0588975 57.5323,-5.35697815 87.98581,9.1356415 42.25402,20.1084 71.51788,66.513617 71.51788,113.409579 0,80.97666 -79.86027,142.96285 -157.85992,122.52819 z"
     id="path4532"
     inkscape:connector-curvature="0" />
  <path
     style="fill:#ffcc00;fill-opacity:0.00392157;stroke-width:2.16949153"
     d="M 193.41389,250.74514 C 169.50464,244.48132 152.83424,234.71592 134.4,216.17527 85.706056,167.20026 84.576075,92.20759 131.77812,42.170932 c 17.56615,-18.621041 37.49404,-30.745195 59.992,-36.4992025 31.50998,-8.0588975 57.5323,-5.35697815 87.98581,9.1356415 42.25402,20.1084 71.51788,66.513617 71.51788,113.409579 0,80.97666 -79.86027,142.96285 -157.85992,122.52819 z"
     id="path4534"
     inkscape:connector-curvature="0" />
  <path
     style="fill:#ffcc00;fill-opacity:0.00392157;stroke-width:2.16949153"
     d="M 193.41389,250.74514 C 169.50464,244.48132 152.83424,234.71592 134.4,216.17527 85.706056,167.20026 84.576075,92.20759 131.77812,42.170932 c 17.56615,-18.621041 37.49404,-30.745195 59.992,-36.4992025 31.50998,-8.0588975 57.5323,-5.35697815 87.98581,9.1356415 42.25402,20.1084 71.51788,66.513617 71.51788,113.409579 0,80.97666 -79.86027,142.96285 -157.85992,122.52819 z"
     id="path4536"
     inkscape:connector-curvature="0" />
  <path
     style="fill:#ffcc00;fill-opacity:0.00392157;stroke-width:2.16949153"
     d="M 32.952144,508.23621 C 22.465447,504.433 11.29797,494.69912 6.394785,485.08808 2.5615707,477.57436 2.0610169,472.29691 2.0610169,439.39619 c 0,-26.89995 0.9520128,-40.8871 3.4390444,-50.5271 9.2127047,-35.70943 37.1596437,-69.61818 70.6057707,-85.66782 9.987215,-4.79252 24.016198,-9.83729 31.175528,-11.2106 19.73689,-3.78595 46.7879,-1.60764 68.33898,5.50308 16.66451,5.4984 21.36613,6.08444 48.81356,6.08444 27.70753,0 31.99113,-0.54618 48.81356,-6.22397 15.96329,-5.38782 21.79243,-6.2355 43.38983,-6.3098 30.37744,-0.1045 46.33402,4.6042 70.59848,20.83326 19.80959,13.24947 33.25972,28.36202 44.10794,49.55961 12.93743,25.27996 14.37832,33.01463 14.37832,77.18246 v 39.21637 l -6.54197,10.586 c -4.7649,7.71041 -9.69411,12.2327 -18.14604,16.64805 l -11.60406,6.06203 -184.70142,-0.16509 C 88.369959,510.84518 38.175349,510.13048 32.952144,508.23617 Z"
     id="path4538"
     inkscape:connector-curvature="0" />
  <path
     style="fill:#c51152;fill-opacity:0.00392157;stroke-width:2.16949153"
     d="M 193.41389,250.74514 C 169.50464,244.48132 152.83424,234.71592 134.4,216.17527 85.706056,167.20026 84.576075,92.20759 131.77812,42.170932 c 17.56615,-18.621041 37.49404,-30.745195 59.992,-36.4992025 31.50998,-8.0588975 57.5323,-5.35697815 87.98581,9.1356415 42.25402,20.1084 71.51788,66.513617 71.51788,113.409579 0,80.97666 -79.86027,142.96285 -157.85992,122.52819 z"
     id="path4540"
     inkscape:connector-curvature="0" />
  <path
     style="fill:#d45500;fill-opacity:1;stroke-width:2.16949153"
     d="M 32.952144,508.23621 C 22.465447,504.433 11.29797,494.69912 6.394785,485.08808 2.5615707,477.57436 2.0610169,472.29691 2.0610169,439.39619 c 0,-26.89995 0.9520128,-40.8871 3.4390444,-50.5271 C 17.185208,343.57621 58.0237,303.43703 103.04314,292.99633 c 21.4335,-4.97076 49.16739,-3.25735 72.5772,4.48386 16.68017,5.51583 21.34034,6.098 48.81356,6.098 27.70753,0 31.99113,-0.54618 48.81356,-6.22397 15.96329,-5.38782 21.79243,-6.2355 43.38983,-6.3098 30.37744,-0.1045 46.33402,4.6042 70.59848,20.83326 20.62107,13.79222 33.58078,28.66249 45.33073,52.01353 12.04655,23.94048 14.76033,39.91647 13.85754,81.57956 -0.68673,31.69248 -0.8443,32.62701 -7.24398,42.96723 -4.75791,7.68757 -9.7065,12.22329 -18.14604,16.63217 l -11.60406,6.06203 -184.70142,-0.16509 C 88.369959,510.84518 38.175349,510.13048 32.952144,508.23617 Z"
     id="path4542"
     inkscape:connector-curvature="0" />
  <path
     style="fill:#c51152;fill-opacity:0.00392157;stroke-width:2.16949153"
     d="M 193.41389,250.74514 C 169.50464,244.48132 152.83424,234.71592 134.4,216.17527 85.706056,167.20026 84.576075,92.20759 131.77812,42.170932 c 17.56615,-18.621041 37.49404,-30.745195 59.992,-36.4992025 31.50998,-8.0588975 57.5323,-5.35697815 87.98581,9.1356415 42.25402,20.1084 71.51788,66.513617 71.51788,113.409579 0,80.97666 -79.86027,142.96285 -157.85992,122.52819 z"
     id="path4544"
     inkscape:connector-curvature="0" />
  <path
     style="fill:#ffffff;fill-opacity:1;stroke-width:2.16949153"
     d="M 193.41389,250.74514 C 169.50464,244.48132 152.83424,234.71592 134.4,216.17527 85.706056,167.20026 84.576075,92.20759 131.77812,42.170932 c 17.56615,-18.621041 37.49404,-30.745195 59.992,-36.4992025 31.50998,-8.0588975 57.5323,-5.35697815 87.98581,9.1356415 42.25402,20.1084 71.51788,66.513617 71.51788,113.409579 0,80.97666 -79.86027,142.96285 -157.85992,122.52819 z"
     id="path4546"
     inkscape:connector-curvature="0" />
  <path
     style="fill:#c51152;fill-opacity:0.00392157;stroke-width:2.16949153"
     d="M 119.21356,509.02318 C 27.534811,507.798 29.248575,508.01159 16.5114,496.22305 4.0631795,484.70195 3.2309584,481.05061 3.3446077,438.45424 c 0.1155647,-43.31432 2.2169374,-54.52693 14.6371703,-78.1017 9.10776,-17.28738 35.576676,-43.86809 53.502968,-53.72893 22.662549,-12.46616 35.700994,-15.29089 64.890004,-14.05819 18.35751,0.77527 29.24274,2.43081 40.33033,6.13385 13.183,4.40287 19.47955,5.07857 47.72882,5.12196 29.20257,0.0448 34.10093,-0.50284 47.72881,-5.33648 13.31035,-4.72102 18.80461,-5.38586 44.47458,-5.38168 34.74091,0.006 44.27787,2.62136 68.41244,18.76355 20.70205,13.84636 35.68017,30.82617 46.46994,52.68019 11.93078,24.16499 13.51199,33.82537 12.71715,77.69522 -0.6712,37.04627 -0.79835,37.9402 -6.65318,46.77833 -3.49468,5.27539 -10.68902,11.71728 -17.35593,15.54072 l -11.38703,6.5304 -101.9661,-0.46156 c -56.08136,-0.25385 -140.52882,-0.97688 -187.66102,-1.60674 z"
     id="path4548"
     inkscape:connector-curvature="0" />
  <path
     style="fill:#ffffff;fill-opacity:1;stroke-width:2.16949153"
     d="M 119.21356,509.02318 C 27.534811,507.798 29.248575,508.01159 16.5114,496.22305 4.0631795,484.70195 3.2309584,481.05061 3.3446077,438.45424 c 0.1155647,-43.31432 2.2169374,-54.52693 14.6371703,-78.1017 9.10776,-17.28738 35.576676,-43.86809 53.502968,-53.72893 22.662549,-12.46616 35.700994,-15.29089 64.890004,-14.05819 18.35751,0.77527 29.24274,2.43081 40.33033,6.13385 13.183,4.40287 19.47955,5.07857 47.72882,5.12196 29.20257,0.0448 34.10093,-0.50284 47.72881,-5.33648 13.31035,-4.72102 18.80461,-5.38586 44.47458,-5.38168 34.74091,0.006 44.27787,2.62136 68.41244,18.76355 20.70205,13.84636 35.68017,30.82617 46.46994,52.68019 11.93078,24.16499 13.51199,33.82537 12.71715,77.69522 -0.6712,37.04627 -0.79835,37.9402 -6.65318,46.77833 -3.49468,5.27539 -10.68902,11.71728 -17.35593,15.54072 l -11.38703,6.5304 -101.9661,-0.46156 c -56.08136,-0.25385 -140.52882,-0.97688 -187.66102,-1.60674 z"
     id="path4550"
     inkscape:connector-curvature="0" />
</svg>
